<svg width="19" height="19" viewBox="0 0 19 19" fill="none" xmlns="http://www.w3.org/2000/svg">
<path d="M13.5336 2.20192C15.1439 2.02813 15.5684 2.52877 15.693 3.68381C15.8831 5.44171 15.0484 5.80944 17.017 7.39415C18.2839 8.41402 18.2239 9.07133 17.5079 9.96069C16.3956 11.343 15.5387 11.0119 15.8111 13.5317C15.9849 15.1419 15.4842 15.5665 14.3292 15.691C12.5713 15.8811 12.2036 15.0465 10.6189 17.0151C9.59899 18.282 8.94169 18.222 8.05232 17.5063C6.67001 16.3937 7.00111 15.5369 4.48133 15.8093C2.87107 15.9831 2.44651 15.4824 2.32198 14.3277C2.13187 12.5696 2.96654 12.2018 0.997958 10.6174C-0.268968 9.5972 -0.208981 8.93993 0.507019 8.05067C1.61954 6.66836 2.47625 6.99946 2.20384 4.47968C2.03006 2.86969 2.5307 2.44499 3.68573 2.32033C5.44387 2.13035 5.81164 2.96489 7.39607 0.996304C8.41211 -0.265999 9.0654 -0.213796 9.96911 0.513725C11.3482 1.62401 11.0227 2.47354 13.5336 2.20219L13.5336 2.20192ZM5.96101 8.41062L7.74253 10.0735L12.0578 6.08307L13.2587 7.38106L7.73342 12.4906L4.75333 9.70902L5.96091 8.41103L5.96101 8.41062ZM9.14568 2.15943C8.95304 1.96653 8.76424 2.12306 8.70398 2.1974C6.96974 4.34533 6.92433 4.06654 4.21059 4.06654C4.04132 4.06654 3.95277 4.15376 3.97654 4.38145C4.2949 7.43244 3.77155 7.18893 2.05496 8.97578C1.99468 9.03871 1.99229 9.14187 2.10872 9.23559C4.68336 11.3077 3.933 11.3444 4.06986 13.8537C4.0854 14.1381 4.50119 14.0233 4.67459 14.0041C6.55899 13.7976 6.79492 13.7915 8.19936 15.1731C8.58463 15.5521 8.97987 16.2185 9.50187 15.5778C10.9588 13.7895 12.7574 13.7556 13.5409 13.9451C14.0872 13.9451 14.0467 13.7054 14.0366 13.6105C13.772 11.1319 13.8894 11.0028 15.7367 9.26088C15.9627 9.03479 15.8235 8.7086 15.7137 8.61884C13.4792 6.78994 13.9965 6.57565 13.9451 4.14278C13.9409 3.93912 13.73 3.96382 13.672 3.96992C10.8486 4.26996 11.0394 4.0533 9.14565 2.15945L9.14568 2.15943Z" fill="#FE5000"/>
</svg>
