<svg width="53" height="41" viewBox="0 0 53 41" fill="none" xmlns="http://www.w3.org/2000/svg">
<path d="M51.5871 3.49425C51.5871 5.13026 50.4187 6.59098 48.7827 6.88313C46.3287 7.35061 43.9331 8.40217 41.596 10.0968C38.3823 12.3755 36.7464 15.18 36.7464 18.5107C36.7464 21.5491 39.6095 21.4321 41.8883 21.1986C49.9516 20.3223 55.3269 28.9696 51.0618 35.9227C46.9719 42.5836 36.6883 42.2913 32.014 36.5654C25.2949 28.3268 27.6318 13.3692 35.1107 6.35771C38.6749 3.02705 42.8236 0.982253 47.6145 0.105612C49.6589 -0.303995 51.587 1.39063 51.587 3.49417L51.5871 3.49425ZM23.5413 3.49425C23.5413 5.13026 22.3728 6.59098 20.7368 6.88313C18.2828 7.35061 15.8872 8.40217 13.5502 10.0968C10.3365 12.3755 8.70059 15.18 8.70059 18.5107C8.70059 21.5491 11.5637 21.4321 13.8424 21.1986C21.9057 20.3223 27.2811 28.9696 23.016 35.9227C18.9261 42.5836 8.64248 42.2913 3.96817 36.5654C-2.75177 28.2678 -0.414825 13.3097 7.06448 6.29823C10.6286 2.96758 14.7773 0.922781 19.5683 0.04614C21.6131 -0.30437 23.5412 1.39032 23.5412 3.49375L23.5413 3.49425Z" fill="#FFD800"/>
</svg>
